<svg xmlns="http://www.w3.org/2000/svg" width="512" height="512" fill="none"><g clip-path="url(#clip0)" fill="#2A47B6"><path d="M506.62 315.797v-80.846c0-12.485-10.153-22.641-22.631-22.641h-39.022a7.576 7.576 0 01-7.052-4.736l-14.45-35.656c-.045-.117-.089-.232-.14-.345l-6.13-15.127c-3.209-7.901-10.201-21.157-20.978-21.157h-6.575v-16.874c0-6.958-5.66-12.619-12.619-12.619h-24.965c-6.957 0-12.619 5.661-12.619 12.619v16.874h-8.762v-.36c0-11.049-8.988-20.037-20.037-20.037H83.684a7.514 7.514 0 000 15.028H310.64a5.015 5.015 0 015.01 5.009v35.435a7.514 7.514 0 1015.027 0v-20.047h65.141c1.515.871 4.8 5.249 7.451 11.779l2.029 5.006h-35.854c-7.124 0-12.919 5.796-12.919 12.921v34.411c0 7.124 5.795 12.92 12.919 12.92l114.545-.017c4.192 0 7.604 3.416 7.604 7.614v4.96h-28.771c-6.094 0-11.051 4.958-11.051 11.051v23.723c0 6.094 4.957 11.051 11.051 11.051h28.771v24.463h-72.302c-11.581-4.494-24.594-4.552-36.169 0h-52.446V204.425a7.513 7.513 0 00-7.514-7.513 7.513 7.513 0 00-7.513 7.513V310.2H122.837c-11.566-4.544-24.59-4.487-36.162 0H20.408V134.928a5.015 5.015 0 015.009-5.009H49.62a7.515 7.515 0 000-15.028H25.417c-11.049 0-20.037 8.988-20.037 20.037v180.869c-3.323 3.376-5.38 8-5.38 13.097v16.39c0 10.313 8.39 18.704 18.704 18.704h36.883c2.318 15.142 11.6 28.508 24.97 35.98 14.511 8.11 32.564 8.306 47.291.61 7.396-3.864 13.723-9.618 18.333-16.569 4.072-6.137 6.677-12.951 7.747-20.022h198.123c2.794 18.365 15.994 33.941 33.62 39.737 17.928 5.896 38.141.945 51.297-12.606 7.173-7.388 11.849-16.963 13.412-27.131h42.917c10.314 0 18.704-8.39 18.704-18.704v-16.39c-.001-5.096-2.059-9.721-5.381-13.096zM354.467 120.824h20.147v14.465h-20.147v-14.465zm17.085 61.304h39.836l12.238 30.198h-52.074v-30.198zm95.247 88.581V254.94h24.794v15.769h-24.794zm-113.607 72.942a51.09 51.09 0 00-1.113 5.31H153.891c-1.344-8.668-4.953-16.918-10.483-23.734h219.158a49.6 49.6 0 00-9.374 18.424zm-338.164 1.633v-16.39a3.676 3.676 0 013.676-3.667h47.401c-5.509 6.828-9.193 15.056-10.522 23.734H18.704a3.68 3.68 0 01-3.676-3.677zm118.631 30.419c-8.268 12.462-24.126 18.347-38.524 14.174-13.004-3.769-22.793-15.054-24.718-28.438-1.904-13.248 4.201-26.758 15.459-34.033 12.778-8.257 29.906-7.109 41.475 2.784 11.565 9.888 15.313 26.795 9.006 40.654a35.122 35.122 0 01-2.698 4.859zm301.078-10.202c-3.517 13.125-14.716 23.216-28.154 25.301-12.228 1.897-24.911-3.047-32.583-12.766-9.493-12.026-9.895-29.38-.937-41.816 9.206-12.782 26.394-17.729 41.023-11.929 13.935 5.526 22.905 19.954 21.734 34.905a34.91 34.91 0 01-1.083 6.305zm62.235-20.217a3.681 3.681 0 01-3.676 3.677h-42.915c-1.337-8.673-5.007-16.905-10.513-23.734h53.428a3.676 3.676 0 013.676 3.667v16.39z"/><path d="M177.592 166.89h-19.124c-7.75 0-14.056 6.306-14.056 14.056v25.198h-25.198c-7.751 0-14.057 6.306-14.057 14.057v19.124c0 7.751 6.306 14.056 14.057 14.056h25.198v25.198c0 7.751 6.306 14.056 14.056 14.056h19.124c7.75 0 14.056-6.305 14.056-14.056v-25.198h25.198c7.751 0 14.057-6.305 14.057-14.056v-19.124c0-7.751-6.306-14.057-14.057-14.057h-25.198v-25.198c0-7.75-6.306-14.056-14.056-14.056zm38.283 71.464h-31.741a7.514 7.514 0 00-7.514 7.513v31.741h-17.18v-31.741a7.514 7.514 0 00-7.514-7.513h-31.741v-17.182h31.741a7.514 7.514 0 007.514-7.514v-31.74h17.18v31.74a7.514 7.514 0 007.514 7.514h31.741v17.182zm151.178 15.13a7.513 7.513 0 100-15.027h-17.085a7.513 7.513 0 100 15.027h17.085z"/></g><defs><clipPath id="clip0"><path fill="#fff" d="M0 0h512v512H0z"/></clipPath></defs></svg>