<svg xmlns="http://www.w3.org/2000/svg" width="512" height="512" fill="none"><g clip-path="url(#clip0)" fill="#2A47B6"><path d="M235.624 398.679c-11.937 0-22.812-7.046-27.706-17.95-2.561-5.707-11.095-5.771-13.685 0-4.893 10.904-15.768 17.95-27.705 17.95-9.674 0-9.674 15 0 15 13.482 0 26.056-6.013 34.547-15.982 8.492 9.97 21.066 15.982 34.548 15.982 9.675 0 9.675-15 .001-15zm-8.871-196.726a7.5 7.5 0 00.016-10.606 7.5 7.5 0 00-10.606-.016c-8.318 8.294-21.854 8.294-30.172 0a7.5 7.5 0 00-10.606.016 7.498 7.498 0 00.016 10.606c7.079 7.059 16.378 10.588 25.677 10.588 9.297 0 18.596-3.53 25.675-10.588z"/><path d="M438.266 399.456h-11.69v-8.543c28.964-10.196 49.788-37.816 49.788-70.223v-57.792a74.15 74.15 0 00-3.422-22.313 7.5 7.5 0 00-9.407-4.899 7.5 7.5 0 00-4.899 9.407 59.165 59.165 0 012.729 17.805v30.732a11.777 11.777 0 01-4.295-9.03c.299-15.605-12.746-28.593-28.245-28.62 0 0-37.708-.07-53.392.012-15.074.078-27.418 12.149-28.101 27.481-.182 4.139-1.627 7.801-5.028 10.354v-30.93c0-32.72 26.706-59.339 59.531-59.339 13.846 0 27.331 4.845 37.972 13.642a7.502 7.502 0 009.558-11.562c-13.324-11.014-30.204-17.08-47.53-17.08a74.232 74.232 0 00-32.552 7.479c-5.437-13.683-14.286-25.71-25.896-35.077-4.591-3.704-6.195-10.078-3.992-15.859a47.992 47.992 0 003.145-17.153c0-20.608-13.401-38.952-33.346-45.645-4.691-1.574-8.168-5.665-9.074-10.674C292.613 30.125 256.508 0 214.267 0h-26.381c-10.589 0-20.94 1.878-30.767 5.582a7.5 7.5 0 105.29 14.036C170.539 16.554 179.11 15 187.886 15h26.381c34.98 0 64.877 24.939 71.089 59.299 1.88 10.394 9.184 18.911 19.063 22.226 13.828 4.64 23.119 17.269 23.119 31.424 0 4.073-.728 8.047-2.162 11.812-4.522 11.869-1.07 25.08 8.59 32.874 10.297 8.308 17.963 19.141 22.329 31.476-17.618 13.609-28.992 34.892-28.992 58.787v24.666c-8.463 5.385-17.921 8.902-27.769 10.32-6.167-12.362-16.62-22.33-29.848-27.844.234-4.381-2.805-8.541-7.5-8.541h-15.87a7.499 7.499 0 00-6.619 3.98h-8.805v-14.095c33.386-12.165 57.291-44.227 57.291-81.768v-43.073c0-3.248-2.047-6.112-5.136-7.118-13.404-4.515-22.693-19.422-26.791-32.093-2.982-9.226-15.887-10.825-20.911-2.49-12.746 21.145-42.317 29.374-64.88 32.553-25.496 3.592-48.12 1.695-48.342 1.677-4.324-.388-8.155 3.137-8.155 7.471v43.073c0 37.542 23.905 69.603 57.291 81.768v14.095h-8.805a7.497 7.497 0 00-6.619-3.98h-15.869c-4.637 0-7.706 4.18-7.5 8.54-13.224 5.512-23.675 15.473-29.842 27.83-33.865-4.874-60.173-34.118-60.813-68.751-.407-22.044 9.206-42.632 26.375-56.483 9.661-7.794 13.113-21.005 8.59-32.873a33.057 33.057 0 01-2.162-11.813c0-14.171 9.286-26.804 23.106-31.434 9.885-3.312 17.195-11.83 19.078-22.23 2.231-12.33 7.7-23.938 15.816-33.568a7.5 7.5 0 00-.902-10.568 7.498 7.498 0 00-10.568.902c-9.802 11.631-16.409 25.658-19.106 40.563-.908 5.014-4.388 9.106-9.083 10.679-19.942 6.681-33.341 25.029-33.341 45.657a48.008 48.008 0 003.145 17.153c2.203 5.782.599 12.155-3.992 15.859-20.8 16.782-32.447 41.725-31.953 68.435.758 40.994 31.184 75.762 70.836 82.865a59.57 59.57 0 00-1.21 11.965V504.5a7.5 7.5 0 0015 0V324.227c0-15.643 8.135-29.646 21.026-37.425v51.568c-14.893 16.879-14.893 43.02 0 59.899V504.5a7.5 7.5 0 0015 0V395.289a7.499 7.499 0 00-2.237-5.343c-11.902-11.724-11.905-31.525 0-43.252a7.496 7.496 0 002.237-5.343V276.5h2.235c5.984 25.29 22.108 53.333 51.374 53.333 29.259 0 45.39-28.047 51.374-53.333h2.235v64.851c0 2.009.806 3.934 2.237 5.343 11.903 11.724 11.906 31.525 0 43.252a7.5 7.5 0 00-2.237 5.343V504.5a7.5 7.5 0 0015 0V398.27c14.893-16.878 14.893-43.021 0-59.899v-51.568c12.891 7.78 21.026 21.784 21.026 37.425V504.5a7.5 7.5 0 0015 0V324.227c0-4.082-.415-8.081-1.207-11.952a85.274 85.274 0 0022.798-7.519v15.934c0 33.24 21.904 61.454 52.033 70.984v7.782h-11.69c-25.879 0-46.933 21.054-46.933 46.933V504.5a7.5 7.5 0 0015 0v-36h14.359v36a7.5 7.5 0 0015 0V461a7.5 7.5 0 00-7.5-7.5h-21.859v-7.111c0-17.608 14.325-31.933 31.933-31.933h13.974c8.391 17.596 34.268 17.64 42.674 0h13.973c17.608 0 31.934 14.325 31.934 31.934v7.11H448.34a7.5 7.5 0 00-7.5 7.5v43.5a7.5 7.5 0 0015 0v-36h14.36v36a7.5 7.5 0 0015 0v-58.11c0-25.88-21.054-46.934-46.934-46.934zM128.969 169.617v-35.14c22.97.823 87.617-.283 115.34-36.215 8.244 19.831 21.565 29.232 28.874 33.104v38.25c0 39.697-32.296 71.993-71.993 71.993h-.229c-39.696 0-71.992-32.296-71.992-71.992zm72.107 145.216c-18.996 0-29.584-18.415-34.7-34.353h12.384a7.5 7.5 0 007.5-7.5v-17.62a88.204 88.204 0 0029.632 0v17.62a7.5 7.5 0 007.5 7.5h12.402c-4.438 13.9-14.417 34.353-34.718 34.353zm141.226 5.857v-10.408c11.481-3.257 19.934-13.788 20.021-26.278.396-7.391 6.042-12.974 13.187-13.011 15.63-.082 53.287-.012 53.287-.012 7.566.013 13.271 6.169 13.271 13.553 0 12.172 8.161 22.466 19.295 25.719v10.437c0 32.772-26.662 59.435-59.435 59.435h-.193c-32.771 0-59.433-26.663-59.433-59.435zm60.63 92.247c-4.741 0-8.597-3.856-8.597-8.597v-9.585a75.893 75.893 0 0017.241-.276v9.861c0 4.741-3.857 8.597-8.644 8.597z"/><path d="M422.665 348.137a7.501 7.501 0 00-10.592-10.622c-5.646 5.631-14.833 5.631-20.481 0A7.501 7.501 0 00381 348.137c5.744 5.727 13.288 8.59 20.832 8.59 7.545 0 15.089-2.863 20.833-8.59z"/></g><defs><clipPath id="clip0"><path fill="#fff" d="M0 0h512v512H0z"/></clipPath></defs></svg>