<svg xmlns="http://www.w3.org/2000/svg" width="512" height="512" fill="none"><g clip-path="url(#clip0)" fill="#2A47B6"><path d="M303.274 74.86h28.86c4.143 0 7.5-3.357 7.5-7.5s-3.357-7.5-7.5-7.5h-21.36V44.93h21.36c4.143 0 7.5-3.357 7.5-7.5s-3.357-7.5-7.5-7.5h-21.36V15h21.36c4.143 0 7.5-3.357 7.5-7.5s-3.357-7.5-7.5-7.5h-28.86a7.499 7.499 0 00-7.5 7.5v59.86a7.5 7.5 0 007.5 7.5zM244.53 15h7.43v52.36c0 4.143 3.357 7.5 7.5 7.5s7.5-3.357 7.5-7.5V15h7.431c4.143 0 7.5-3.357 7.5-7.5s-3.357-7.5-7.5-7.5h-29.86a7.499 7.499 0 00-7.5 7.5c0 4.143 3.357 7.5 7.499 7.5zm-57.853 59.86h29.86c4.143 0 7.5-3.357 7.5-7.5V7.5c0-4.143-3.357-7.5-7.5-7.5h-29.86a7.499 7.499 0 00-7.5 7.5v59.86c0 4.143 3.357 7.5 7.5 7.5zm7.5-59.86h14.86v44.86h-14.86V15z"/><path d="M429.72 467.048h-31.085V133.787c11.689-3.273 20.284-14.001 20.284-26.695 0-9.501-7.743-17.231-17.261-17.231h-3.023v-22.5c0-4.143-3.357-7.5-7.5-7.5h-21.36V7.5c0-4.143-3.357-7.5-7.5-7.5a7.499 7.499 0 00-7.5 7.5v59.86c0 4.143 3.357 7.5 7.5 7.5h21.36v15H134.177V44.93h14.86v22.43c0 4.143 3.357 7.5 7.5 7.5s7.5-3.357 7.5-7.5V7.5c0-4.143-3.357-7.5-7.5-7.5a7.499 7.499 0 00-7.5 7.5v22.431h-14.86V7.5c0-4.143-3.357-7.5-7.5-7.5a7.499 7.499 0 00-7.5 7.5v82.36h-3.023c-9.518 0-17.261 7.73-17.261 17.231 0 12.694 8.595 23.422 20.284 26.695v333.261H82.28c-9.528 0-17.28 7.73-17.28 17.231C65 499.564 77.481 512 92.824 512h326.352C434.519 512 447 499.564 447 484.279c0-9.501-7.752-17.231-17.28-17.231zM419.176 497H92.824C85.753 497 80 491.294 80 484.279c0-1.23 1.022-2.231 2.28-2.231h241.642c4.143 0 7.5-3.357 7.5-7.5s-3.357-7.5-7.5-7.5h-37.517V337.316c0-4.143-3.357-7.5-7.5-7.5h-40a7.499 7.499 0 00-7.5 7.5v129.731h-97.229V134.919h27.376c4.143 0 7.5-3.357 7.5-7.5s-3.357-7.5-7.5-7.5h-34.876v-.105c-7.049 0-12.784-5.707-12.784-12.722 0-1.23 1.015-2.231 2.261-2.231h285.505c1.247 0 2.261 1.001 2.261 2.231 0 7.015-5.735 12.722-12.784 12.722v.105H196.692a7.499 7.499 0 00-7.5 7.5c0 4.143 3.357 7.5 7.5 7.5h186.942v332.129H358.89a7.499 7.499 0 00-7.5 7.5c0 4.143 3.357 7.5 7.5 7.5h70.83c1.258 0 2.28 1.001 2.28 2.231 0 7.015-5.753 12.721-12.824 12.721zM271.405 359.816h-25v-15h25v15zm-25 15h25v92.231h-25v-92.231z"/><path d="M196.692 150.043h-40a7.499 7.499 0 00-7.5 7.5v60c0 4.143 3.357 7.5 7.5 7.5h40c4.143 0 7.5-3.357 7.5-7.5v-60c0-4.143-3.357-7.5-7.5-7.5zm-7.5 15v15h-25v-15h25zm-25 45v-15h25v15h-25zm32.5 29.837h-40a7.499 7.499 0 00-7.5 7.5v60c0 4.143 3.357 7.5 7.5 7.5h40c4.143 0 7.5-3.357 7.5-7.5v-60c0-4.143-3.357-7.5-7.5-7.5zm-7.5 15v15h-25v-15h25zm-25 45v-15h25v15h-25zm32.5 29.936h-40a7.499 7.499 0 00-7.5 7.5v91.782c0 4.143 3.357 7.5 7.5 7.5h40c4.143 0 7.5-3.357 7.5-7.5v-91.782a7.5 7.5 0 00-7.5-7.5zm-7.5 15v15h-25v-15h25zm-25 76.783v-46.782h25v46.782h-25zm114.713-271.556h-40a7.499 7.499 0 00-7.5 7.5v60c0 4.143 3.357 7.5 7.5 7.5h40c4.143 0 7.5-3.357 7.5-7.5v-60c0-4.143-3.357-7.5-7.5-7.5zm-7.5 15v15h-25v-15h25zm-25 45v-15h25v15h-25zm32.5 29.837h-40a7.499 7.499 0 00-7.5 7.5v60c0 4.143 3.357 7.5 7.5 7.5h40c4.143 0 7.5-3.357 7.5-7.5v-60c0-4.143-3.357-7.5-7.5-7.5zm-7.5 15v15h-25v-15h25zm-25 45v-15h25v15h-25zm75-74.837h40c4.143 0 7.5-3.357 7.5-7.5v-60c0-4.143-3.357-7.5-7.5-7.5h-40a7.499 7.499 0 00-7.5 7.5v60a7.5 7.5 0 007.5 7.5zm7.5-15v-15h25v15h-25zm25-45v15h-25v-15h25zm-32.5 149.837h40c4.143 0 7.5-3.357 7.5-7.5v-60c0-4.143-3.357-7.5-7.5-7.5h-40a7.499 7.499 0 00-7.5 7.5v60a7.5 7.5 0 007.5 7.5zm7.5-15v-15h25v15h-25zm25-45v15h-25v-15h25zm15 174.219v-91.782c0-4.143-3.357-7.5-7.5-7.5h-40a7.499 7.499 0 00-7.5 7.5v91.782c0 4.143 3.357 7.5 7.5 7.5h40a7.5 7.5 0 007.5-7.5zm-15-84.283v15h-25v-15h25zm-25 76.783v-46.782h25v46.782h-25z"/></g><defs><clipPath id="clip0"><path fill="#fff" d="M0 0h512v512H0z"/></clipPath></defs></svg>