<svg xmlns="http://www.w3.org/2000/svg" width="512" height="512" fill="none"><g clip-path="url(#clip0)" fill="#2A47B6"><path d="M501.333 512H10.667C4.779 512 0 507.221 0 501.333s4.779-10.666 10.667-10.666h490.666c5.888 0 10.667 4.778 10.667 10.666 0 5.888-4.779 10.667-10.667 10.667z"/><path d="M138.667 512H32c-5.888 0-10.667-4.779-10.667-10.667V384c0-11.755 9.558-21.333 21.334-21.333H128c11.776 0 21.333 9.578 21.333 21.333v117.333c0 5.888-4.778 10.667-10.666 10.667zm-96-21.333H128V384H42.667v106.667zM309.333 512H202.667c-5.888 0-10.667-4.779-10.667-10.667V256c0-11.755 9.557-21.333 21.333-21.333h85.334c11.776 0 21.333 9.578 21.333 21.333v245.333c0 5.888-4.779 10.667-10.667 10.667zm-96-21.333h85.334V256h-85.334v234.667zM480 512H373.333c-5.888 0-10.666-4.779-10.666-10.667V298.667c0-11.755 9.557-21.334 21.333-21.334h85.333c11.776 0 21.334 9.579 21.334 21.334v202.666c0 5.888-4.779 10.667-10.667 10.667zm-96-21.333h85.333v-192H384v192zm-330.667-256c-2.73 0-5.461-1.046-7.552-3.115-4.16-4.16-4.16-10.923 0-15.083l106.667-106.666c2.645-2.646 6.464-3.755 10.133-2.816l164.822 41.194L451.136 24.448c4.16-4.16 10.923-4.16 15.083 0s4.16 10.923 0 15.083l-128 128c-2.624 2.645-6.464 3.712-10.134 2.794l-164.821-41.173-102.4 102.4a10.63 10.63 0 01-7.53 3.115z"/><path d="M458.667 128c-5.888 0-10.667-4.779-10.667-10.667V42.667h-74.667c-5.888 0-10.666-4.779-10.666-10.667s4.778-10.667 10.666-10.667h85.334c5.888 0 10.666 4.779 10.666 10.667v85.333c0 5.888-4.778 10.667-10.666 10.667z"/></g><defs><clipPath id="clip0"><path fill="#fff" d="M0 0h512v512H0z"/></clipPath></defs></svg>