<svg xmlns="http://www.w3.org/2000/svg" width="512" height="512" fill="none"><path d="M452.552 215.16l-19.296-3.856a15.957 15.957 0 01-12.552-12.552l-3.544-17.72a56.339 56.339 0 0017.36-21.024H440c17.648 0 32-14.352 32-32 0-7.208-2.48-13.792-6.52-19.144l2.928-8.784A69.948 69.948 0 00472 77.944C472 39.376 440.624 8 402.048 8H380.84a61.76 61.76 0 00-49.664 24.96l-5.832 1.464c-4.536 1.128-8.68 3.064-12.376 5.576H24v208h77.752l-12 48H8v16h496v-34.096c0-30.4-21.64-56.784-51.448-62.744zM217.752 248l12 48h-83.504l12-48h59.504zm16.496 0h37.272c-4.784 9-7.52 19.192-7.52 29.904V296h-17.752l-12-48zM280 277.904c0-22.8 16.224-42.592 38.584-47.064l6.76-1.352L355.576 296H280v-18.096zm74.352-59.784l14.888 7.44-20.608 16.488-7.288-16.032c4.984-1.584 9.432-4.288 13.008-7.896zm31.88 29.88h-4.464l-3.152-9.448 5.384-4.304 5.384 4.304-3.152 9.448zm-18.448 8.648l-3.36 20.152-8.96-19.72 9.84-7.872 2.48 7.44zM382.776 264h2.448l5.336 32h-13.12l5.336-32zm17.44-7.352l2.48-7.44 9.84 7.872-8.96 19.72-3.36-20.152zm26.44-30.624l-7.288 16.032-20.608-16.488 14.888-7.44c3.576 3.6 8.024 6.304 13.008 7.896zm-21.64-24.144c.16.8.432 1.56.648 2.336L384 215.056l-21.672-10.832c.216-.776.488-1.536.648-2.336l2.616-13.056C371.368 190.848 377.544 192 384 192c6.456 0 12.632-1.152 18.408-3.176l2.608 13.056zM424 136c0 22.056-17.944 40-40 40s-40-17.944-40-40v-31.016a23.974 23.974 0 0118.064-23.256C365.8 90.128 374.224 96 384 96h32c4.408 0 8 3.584 8 8v32zm16 8h-.64c.376-2.624.64-5.28.64-8v-24c8.824 0 16 7.176 16 16s-7.176 16-16 16zM329.224 49.936l11.712-2.928 1.712-2.568A45.819 45.819 0 01380.84 24h21.208C431.8 24 456 48.2 456 77.944c0 5.808-.936 11.544-2.768 17.064l-1.136 3.4C448.36 96.88 444.28 96 440 96h-1.472c-3.312-9.288-12.112-16-22.528-16h-32c-4.408 0-8-3.584-8-8s3.592-8 8-8h8V48h-8c-10.992 0-20.288 7.432-23.112 17.528l-2.592.648C343.456 69.888 332.464 81.6 329.144 96H328c-4.024 0-7.832.832-11.376 2.184C314.504 90.816 312 80.36 312 72c0-10.456 7.08-19.52 17.224-22.064zM328 112v24c0 2.72.264 5.376.64 8H328c-8.824 0-16-7.176-16-16s7.176-16 16-16zM40 56h259.584C297.344 60.92 296 66.312 296 72c0 12.864 4.52 28.696 6.968 36.312C298.672 113.76 296 120.536 296 128c0 17.648 14.352 32 32 32h5.48a56.339 56.339 0 0017.36 21.024l-3.544 17.72a15.967 15.967 0 01-12.552 12.552l-19.296 3.856c-12.376 2.472-23.296 8.504-31.896 16.84H40V56zm78.248 192h23.504l-12 48h-23.504l12-48zM488 296h-75.576l30.232-66.512 6.76 1.352c22.36 4.472 38.584 24.272 38.584 47.064V296z" fill="#2A47B6"/><path d="M280 88h-96v32h-32V72H56v96h48v48h112v-48h64V88zM72 88h64v64H72V88zm128 112h-80v-32h32v-32h48v64zm64-48h-48v-32h-16v-16h64v48zm187.912 274.816C464.384 416.312 472 400.688 472 384v-8c0-26.472-21.528-48-48-48h-16c-26.472 0-48 21.528-48 48v8c0 16.696 7.624 32.328 20.08 42.816a71.694 71.694 0 00-44.136 36.24c-9-17.392-24.856-30.648-43.992-36.184C304.192 416.592 312 401.192 312 384v-8c0-26.472-21.528-48-48-48h-16c-26.472 0-48 21.528-48 48v8c0 17.192 7.808 32.592 20.048 42.872-19.16 5.544-35.024 18.816-44.016 36.24-8.984-17.424-24.864-30.736-44.024-36.288C144.216 416.544 152 401.168 152 384v-16c0-22.056-17.944-40-40-40H56c-8.824 0-16 7.176-16 16v40c0 17.192 7.808 32.592 20.048 42.872C30.032 435.552 8 463.224 8 496v8h496v-8a71.786 71.786 0 00-52.088-69.184zM432 440c0 8.824-7.176 16-16 16s-16-7.176-16-16c0-.8.2-1.544.312-2.312C405.36 439.16 410.648 440 416 440s10.648-.84 15.688-2.312c.112.768.312 1.512.312 2.312zm-56-56v-8c0-17.648 14.352-32 32-32h16c17.648 0 32 14.352 32 32v8c0 15.416-9.032 29.624-23.072 36.224-10.256 4.936-23.536 4.968-33.92-.032C385.032 413.624 376 399.416 376 384zm-160 0v-8c0-17.648 14.352-32 32-32h16c17.648 0 32 14.352 32 32v8c0 22.056-17.944 40-40 40s-40-17.944-40-40zm24 56h32c28.152 0 51.456 20.912 55.36 48H184.64c3.904-27.088 27.208-48 55.36-48zM56 384v-40h56c13.232 0 24 10.768 24 24v16c0 22.056-17.944 40-40 40s-40-17.944-40-40zM24.568 488c3.896-27.104 27.264-48 55.432-48h32c28.168 0 51.536 20.896 55.432 48H24.568zm320.056 0c3.104-21.784 18.624-39.64 39.6-45.744C385.408 458.832 399.128 472 416 472c16.864 0 30.584-13.16 31.768-29.728 20.984 6.104 36.568 23.944 39.664 45.728H344.624z" fill="#2A47B6"/></svg>