<svg xmlns="http://www.w3.org/2000/svg" width="512" height="512" fill="none"><path d="M81.885 198.692c5.522 0 10-4.478 10-10V175.71c0-5.522-4.478-10-10-10s-10 4.478-10 10v12.982c0 5.523 4.477 10 10 10zm64.062 0c5.522 0 10-4.478 10-10V175.71c0-5.522-4.478-10-10-10s-10 4.478-10 10v12.982c0 5.523 4.478 10 10 10zm64.09 0c5.522 0 10-4.478 10-10V175.71c0-5.522-4.478-10-10-10s-10 4.478-10 10v12.982c0 5.523 4.478 10 10 10zm64.09 0c5.522 0 10-4.478 10-10V175.71c0-5.522-4.478-10-10-10s-10 4.478-10 10v12.982c0 5.523 4.477 10 10 10zM81.885 256.32c5.522 0 10-4.478 10-10v-12.954c0-5.522-4.478-10-10-10s-10 4.478-10 10v12.954c0 5.523 4.477 10 10 10zm64.062 0c5.522 0 10-4.478 10-10v-12.954c0-5.522-4.478-10-10-10s-10 4.478-10 10v12.954c0 5.523 4.478 10 10 10zm64.09 0c5.522 0 10-4.478 10-10v-12.954c0-5.522-4.478-10-10-10s-10 4.478-10 10v12.954c0 5.523 4.478 10 10 10zm64.09 0c5.522 0 10-4.478 10-10v-12.954c0-5.522-4.478-10-10-10s-10 4.478-10 10v12.954c0 5.523 4.477 10 10 10z" fill="#2A47B6"/><path d="M502 442.281h-7.121V227.187c0-11.172-9.089-20.262-20.261-20.262H338.892v-69.449c7.986-4.417 13.407-12.927 13.407-22.68v-14.484c0-14.282-11.619-25.902-25.901-25.902h-78.043V62.015C248.354 27.819 220.522 0 186.312 0h-16.639c-34.195 0-62.015 27.819-62.015 62.015v12.394H29.587c-14.282 0-25.902 11.62-25.902 25.902v14.484c0 9.754 5.422 18.263 13.408 22.68v304.806H10c-5.522 0-10 4.478-10 10V502c0 5.522 4.478 10 10 10h182.236c5.522 0 10-4.478 10-10s-4.478-10-10-10H20v-29.719h472V492H282.036c-5.522 0-10 4.478-10 10s4.478 10 10 10H502c5.522 0 10-4.478 10-10v-49.719c0-5.522-4.478-10-10-10zm-27.382-215.356c.117 0 .261.145.261.262v215.095h-36.947v-43.75h4.146c5.522 0 10-4.478 10-10s-4.478-10-10-10h-72.765c-5.522 0-10 4.478-10 10s4.478 10 10 10h4.145v43.75h-34.565V226.925h135.725zm-56.686 171.606v43.75h-24.475v-43.75h24.475zM117.658 140.697h201.233v255.777H230.44V364.97h16.645c5.522 0 10-4.478 10-10s-4.478-10-10-10H101.728c-5.522 0-10 4.478-10 10s4.478 10 10 10h16.645v31.505h-81.28V140.697h80.565zm20.714 224.273h26.034v77.312h-26.034V364.97zm46.034 0h26.034v77.312h-26.034V364.97zm46.034 51.505h88.451v25.807H230.44v-25.807zm95.957-322.067c3.199 0 5.901 2.703 5.901 5.902v14.484c0 3.199-2.702 5.902-5.901 5.902h-78.043V94.408h78.043zM127.658 62.015c0-23.167 18.848-42.015 42.015-42.015h16.639c23.183 0 42.043 18.848 42.043 42.015v58.683H127.658V62.015zM23.685 100.311c0-3.199 2.703-5.902 5.902-5.902h78.071v26.289H29.587c-3.199 0-5.902-2.703-5.902-5.902v-14.485zm13.408 316.164h81.279v25.807H37.093v-25.807z" fill="#2A47B6"/><path d="M154.139 80.349h13.867v13.839c0 5.522 4.478 10 10 10s10-4.478 10-10V80.349h13.839c5.522 0 10-4.478 10-10s-4.478-10-10-10h-13.839V46.51c0-5.522-4.478-10-10-10s-10 4.478-10 10v13.839h-13.867c-5.522 0-10 4.478-10 10s4.477 10 10 10zM81.885 313.976c5.522 0 10-4.478 10-10v-12.982c0-5.522-4.478-10-10-10s-10 4.478-10 10v12.982c0 5.522 4.477 10 10 10zm64.062 0c5.522 0 10-4.478 10-10v-12.982c0-5.522-4.478-10-10-10s-10 4.478-10 10v12.982c0 5.522 4.478 10 10 10zm64.09 0c5.522 0 10-4.478 10-10v-12.982c0-5.522-4.478-10-10-10s-10 4.478-10 10v12.982c0 5.522 4.478 10 10 10zm64.09 0c5.522 0 10-4.478 10-10v-12.982c0-5.522-4.478-10-10-10s-10 4.478-10 10v12.982c0 5.522 4.477 10 10 10zm100.713-21.713c5.522 0 10-4.478 10-10v-12.954c0-5.522-4.478-10-10-10s-10 4.478-10 10v12.954c0 5.522 4.477 10 10 10zm64.091 0c5.522 0 10-4.478 10-10v-12.954c0-5.522-4.478-10-10-10s-10 4.478-10 10v12.954c0 5.522 4.477 10 10 10zm-64.091 57.655c5.522 0 10-4.478 10-10v-12.982c0-5.522-4.478-10-10-10s-10 4.478-10 10v12.982c0 5.522 4.477 10 10 10zm64.091 0c5.522 0 10-4.478 10-10v-12.982c0-5.522-4.478-10-10-10s-10 4.478-10 10v12.982c0 5.522 4.477 10 10 10zM237.136 492c-5.522 0-10 4.478-10 10s4.478 10 10 10h.057c5.522 0 9.972-4.478 9.972-10s-4.507-10-10.029-10z" fill="#2A47B6"/></svg>