<svg xmlns="http://www.w3.org/2000/svg" width="512" height="512" fill="none"><g clip-path="url(#clip0)" fill="#2A47B6"><path d="M418.88 344.043l-54.869-19.093c-4.011-1.365-8.469-.277-11.371 2.859-26.901 29.355-61.227 45.525-96.64 45.525-35.413 0-69.739-16.171-96.64-45.525-2.901-3.136-7.36-4.224-11.371-2.859L93.12 344.043C37.419 363.413 0 416.043 0 475.008v15.659c0 5.888 4.779 10.667 10.667 10.667h490.667c5.888 0 10.667-4.779 10.667-10.667v-15.659c-.001-58.987-37.42-111.616-93.121-130.965zM490.667 480H21.333v-4.992c0-49.899 31.659-94.443 78.784-110.827l48.384-16.832c30.251 30.571 68.181 47.317 107.499 47.317s77.248-16.747 107.499-47.317l48.384 16.832c47.125 16.384 78.784 60.928 78.784 110.827V480zM224 181.333h-21.333c-5.888 0-10.667 4.779-10.667 10.667s4.779 10.667 10.667 10.667H224c5.888 0 10.667-4.779 10.667-10.667s-4.779-10.667-10.667-10.667zm85.333 0H288c-5.888 0-10.667 4.779-10.667 10.667s4.779 10.667 10.667 10.667h21.333c5.888 0 10.667-4.779 10.667-10.667s-4.779-10.667-10.667-10.667z"/><path d="M369.643 222.229a10.636 10.636 0 00-12.928 7.787C341.781 290.219 301.312 330.667 256 330.667c-45.312 0-85.781-40.448-100.715-100.651-1.429-5.739-7.232-9.195-12.928-7.787-5.717 1.408-9.195 7.211-7.787 12.928C151.915 305.045 200.704 352 256 352c55.296 0 104.085-46.955 121.429-116.843 1.408-5.717-2.069-11.52-7.786-12.928zM256 10.667c-70.507 0-125.739 56.235-125.739 128 0 5.888 4.779 10.667 10.667 10.667s10.667-4.779 10.667-10.667C151.595 78.848 197.44 32 256 32s104.405 46.848 104.405 106.667c0 5.888 4.779 10.667 10.667 10.667s10.667-4.779 10.667-10.667c0-71.766-55.232-128-125.739-128z"/><path d="M336.576 236.437c-4.949-3.264-11.52-1.941-14.784 2.965l-14.997 22.507a10.637 10.637 0 01-8.875 4.757h-3.925c-4.907 0-9.152-3.328-10.859-9.6l-6.635-15.851a10.652 10.652 0 00-9.835-6.549h-21.333c-4.309 0-8.171 2.581-9.856 6.571l-7.125 17.365a10.657 10.657 0 01-10.347 8.085h-3.925a10.64 10.64 0 01-8.875-4.757l-14.997-22.507c-3.264-4.907-9.877-6.251-14.784-2.965-4.907 3.264-6.229 9.877-2.965 14.784l14.997 22.507A31.97 31.97 0 00214.08 288h3.925c14.72 0 27.477-9.963 30.549-22.699l3.883-9.301h7.189l3.328 7.765A31.95 31.95 0 00293.994 288h3.925a31.938 31.938 0 0026.624-14.272l14.997-22.507c3.265-4.906 1.943-11.52-2.964-14.784z"/><path d="M222.784 229.717c-2.752-5.205-9.152-7.232-14.4-4.501-7.573 3.968-32.299 9.451-59.051 9.451-5.888 0-10.667 4.779-10.667 10.667S143.445 256 149.333 256c30.037 0 57.941-6.123 68.949-11.883 5.227-2.73 7.233-9.173 4.502-14.4zm139.883 4.95c-26.752 0-51.477-5.483-59.051-9.451-5.227-2.731-11.669-.704-14.4 4.501-2.731 5.227-.725 11.669 4.501 14.4 11.008 5.76 38.912 11.883 68.949 11.883 5.888 0 10.667-4.779 10.667-10.667s-4.778-10.666-10.666-10.666zm-121.024-82.752c-8.896-7.68-54.485-44.821-78.507-20.8-4.16 4.16-4.16 10.923 0 15.083s10.923 4.16 15.083 0c6.933-6.891 33.493 8.085 49.493 21.867a10.573 10.573 0 006.955 2.603c2.987 0 5.973-1.259 8.085-3.712 3.84-4.46 3.349-11.18-1.109-15.041zm107.221-20.779c-24-24.021-69.611 13.12-78.507 20.8-4.459 3.861-4.949 10.581-1.109 15.04a10.67 10.67 0 008.085 3.691 10.62 10.62 0 006.955-2.581c16.021-13.803 42.624-28.736 49.493-21.867 4.16 4.16 10.923 4.16 15.083 0s4.16-10.923 0-15.083z"/><path d="M377.877 75.669C332.288 54.272 259.2 53.355 255.915 53.333c-3.093.021-76.181.939-121.771 22.336A10.703 10.703 0 00128 85.781l6.272 147.243c.256 5.909 5.397 10.752 11.115 10.219 5.888-.256 10.453-5.227 10.197-11.115l-5.952-139.925c41.835-16.725 105.792-17.536 106.261-17.536.683 0 64.619.811 106.475 17.536l-5.952 139.925c-.256 5.888 4.309 10.859 10.197 11.115h.469c5.675 0 10.411-4.48 10.667-10.219L384 85.781a10.72 10.72 0 00-6.123-10.112zM268.416 288.128c-5.824-1.003-11.307 2.965-12.267 8.768l-.149.875-.149-.853c-.96-5.803-6.485-9.749-12.267-8.768-5.803.96-9.728 6.464-8.768 12.267l10.667 64A10.655 10.655 0 00256 373.334c5.226 0 9.664-3.776 10.517-8.939l10.667-64c.981-5.803-2.965-11.307-8.768-12.267z"/></g><defs><clipPath id="clip0"><path fill="#fff" d="M0 0h512v512H0z"/></clipPath></defs></svg>