<svg xmlns="http://www.w3.org/2000/svg" width="512" height="512" fill="none"><g clip-path="url(#clip0)"><path d="M419.733 453.059v50.408a8.534 8.534 0 01-17.066 0v-50.408c0-23.626-11.707-45.641-31.315-58.887a8.533 8.533 0 01-2.293-11.848 8.531 8.531 0 0111.848-2.293c24.312 16.423 38.826 43.724 38.826 73.028zm18.134-243.992V316.8a8.533 8.533 0 01-8.534 8.533H411.2c-22.267 0-43.208-9.832-57.453-26.974-3.011-3.624-2.514-9.004 1.109-12.018a8.538 8.538 0 0112.019 1.11c10.991 13.23 27.147 20.816 44.325 20.816h9.6v-99.2c0-20.014-14.208-36.769-33.067-40.716v30.404a8.534 8.534 0 01-17.066 0V115.2c0-54.11-44.023-98.133-98.134-98.133h-51.195c-54.114 0-98.138 44.023-98.138 98.137v83.551c0 6.915 3.893 12.934 9.6 15.992v-50.48a8.534 8.534 0 0117.067 0v59.866c0 53.524 43.543 97.067 97.066 97.067S344 277.657 344 224.133v-51.087c-20.582-1.169-38.443-14.032-44.804-37.912a292.5 292.5 0 01-57.883 28.621c-28.791 10.456-57.298 14.81-60.466 14.81a8.534 8.534 0 01-1.173-16.985c43.561-6.099 84.903-22.462 120.995-48.011 5.661-4.007 13.508.079 13.463 7.02-.001.211.079 21.375 16.132 31.032 10.612 6.384 20.718 3.874 23.288 4.18a8.51 8.51 0 017.221 6.283c.423 1.602.292-2.159.292 62.699 0 74.211-72.52 130.582-146.314 108.856-.813 10.307-4.595 20.002-10.935 28.103l43.116 32.863 22.743-17.336a8.533 8.533 0 0111.959 1.614c2.858 3.748 2.134 9.102-1.614 11.96-29.356 22.376-27.964 21.398-28.97 21.952a8.496 8.496 0 01-6.872.613c-1.885-.639 1.961 2.052-53.111-39.924a52.177 52.177 0 01-17.736 7.39V419.3c13.514 3.745 23.467 16.146 23.467 30.836 0 17.644-14.355 32-32 32s-32-14.356-32-32c0-14.69 9.953-27.091 23.466-30.836v-36.985c-36.013 2.966-65.066 33.072-65.066 70.746v50.406a8.534 8.534 0 01-17.067 0v-50.408c0-48.68 39.392-88.076 88.076-88.076 19.749 0 35.657-15.985 35.657-35.564v-2.248c-35.921-17.175-61.511-52.596-64.717-94.186-15.475-3.701-27.016-17.639-27.016-34.23v-83.551C106.133 51.68 157.814 0 221.338 0h51.195c63.522 0 115.2 51.678 115.2 115.2v35.827c28.318 4.146 50.134 28.589 50.134 58.04zM164.8 435.2c-8.235 0-14.933 6.699-14.933 14.933 0 8.235 6.698 14.934 14.933 14.934s14.933-6.699 14.933-14.934c0-8.234-6.698-14.933-14.933-14.933zm172.8-16.258c0-48.745.191-46.32-.451-48.227a8.526 8.526 0 00-7.505-5.782c-12.629-.905-22.667-7.512-28.488-17.071a8.534 8.534 0 00-14.577 8.877 52.724 52.724 0 0033.954 24.109v38.094C299.308 422.954 283.2 441.627 283.2 464v39.467a8.534 8.534 0 0017.067 0V464c0-15.881 12.919-28.8 28.8-28.8 15.88 0 28.8 12.919 28.8 28.8v39.467a8.533 8.533 0 0017.066 0V464c0-22.374-16.107-41.046-37.333-45.058z" fill="#2A47B6"/></g><defs><clipPath id="clip0"><path fill="#fff" d="M0 0h512v512H0z"/></clipPath></defs></svg>