<svg xmlns="http://www.w3.org/2000/svg" width="641" height="590" viewBox="0 0 641 590" fill="none"> <path d="M552.452 0.956421H88.8818C40.4136 0.956421 0.979492 40.3827 0.979492 88.8588V372.554C0.979492 420.921 40.2419 460.285 88.5696 460.456V589.194L273.58 460.456H552.452C600.92 460.456 640.354 421.022 640.354 372.554V88.8588C640.354 40.3827 600.92 0.956421 552.452 0.956421ZM602.891 372.554C602.891 400.363 580.265 422.993 552.452 422.993H261.826L126.033 517.487V422.993H88.8818C61.0692 422.993 38.4429 400.363 38.4429 372.554V88.8588C38.4429 61.0422 61.0692 38.4198 88.8818 38.4198H552.452C580.265 38.4198 602.891 61.0422 602.891 88.8588V372.554Z" fill="#FF6B00"/> <path d="M172.105 133.331H469.229V170.794H172.105V133.331Z" fill="#FF6B00"/> <path d="M172.105 213.253H469.229V250.716H172.105V213.253Z" fill="#FF6B00"/> <path d="M172.105 293.175H469.229V330.638H172.105V293.175Z" fill="#FF6B00"/> </svg>