<svg xmlns="http://www.w3.org/2000/svg" width="641" height="590" fill="none"><path d="M552.452.956H88.882C40.414.956.979 40.383.979 88.86v283.695c0 48.367 39.263 87.731 87.59 87.902v128.738L273.58 460.456h278.872c48.468 0 87.902-39.434 87.902-87.902V88.859c0-48.476-39.434-87.903-87.902-87.903zm50.439 371.598c0 27.809-22.626 50.439-50.439 50.439H261.826l-135.793 94.494v-94.494H88.882c-27.813 0-50.44-22.63-50.44-50.439V88.859c0-27.817 22.627-50.44 50.44-50.44h463.57c27.813 0 50.439 22.623 50.439 50.44v283.695z" fill="#FF6B00"/><path d="M172.105 133.331h297.124v37.463H172.105v-37.463zm0 79.922h297.124v37.463H172.105v-37.463zm0 79.922h297.124v37.463H172.105v-37.463z" fill="#FF6B00"/></svg>