<svg xmlns="http://www.w3.org/2000/svg" width="198" height="198" fill="none"><path d="M99 196.62c53.914 0 97.62-43.706 97.62-97.62S152.914 1.38 99 1.38 1.38 45.086 1.38 99 45.086 196.62 99 196.62z" fill="url(#paint0_linear)"/><path fill-rule="evenodd" clip-rule="evenodd" d="M116.21 60.59H81.79c-11.69 0-21.2 9.51-21.2 21.2v34.42c0 11.69 9.51 21.2 21.2 21.2h34.42c11.69 0 21.2-9.51 21.2-21.2V81.79c0-11.69-9.51-21.2-21.2-21.2zm14.38 55.62c0 7.93-6.45 14.38-14.38 14.38H81.79c-7.93 0-14.38-6.45-14.38-14.38V81.79c0-7.93 6.45-14.38 14.38-14.38h34.42c7.93 0 14.38 6.45 14.38 14.38v34.42z" fill="#FEFEFE"/><path fill-rule="evenodd" clip-rule="evenodd" d="M99 79.21c-10.91 0-19.79 8.88-19.79 19.79 0 10.91 8.88 19.79 19.79 19.79 10.91 0 19.79-8.88 19.79-19.79 0-10.91-8.88-19.79-19.79-19.79zm0 32.77c-7.16 0-12.98-5.82-12.98-12.98S91.84 86.02 99 86.02s12.98 5.82 12.98 12.98-5.82 12.98-12.98 12.98zm20.62-38.55c-1.31 0-2.6.53-3.53 1.46-.93.93-1.46 2.22-1.46 3.54 0 1.31.53 2.6 1.46 3.53a5.03 5.03 0 003.53 1.46c1.32 0 2.61-.53 3.54-1.46a5.032 5.032 0 001.46-3.53c0-1.32-.53-2.61-1.46-3.54a5.036 5.036 0 00-3.54-1.46z" fill="#FEFEFE"/><defs><linearGradient id="paint0_linear" x1="1.38" y1="99" x2="196.62" y2="99" gradientUnits="userSpaceOnUse"><stop stop-color="#8161D0"/><stop offset="1" stop-color="#C65492"/></linearGradient></defs></svg>