<?xml version="1.0" encoding="UTF-8"?> <svg xmlns="http://www.w3.org/2000/svg" width="198" height="198" viewBox="0 0 198 198" fill="none"> <path d="M99 196.62C152.914 196.62 196.62 152.914 196.62 99C196.62 45.086 152.914 1.38 99 1.38C45.086 1.38 1.38 45.086 1.38 99C1.38 152.914 45.086 196.62 99 196.62Z" fill="#3DA3DE"></path> <path fill-rule="evenodd" clip-rule="evenodd" d="M55.81 97.4L76.44 105.1L84.43 130.79C84.94 132.43 86.95 133.04 88.29 131.95L99.79 122.57C100.99 121.59 102.71 121.54 103.97 122.46L124.71 137.52C126.14 138.55 128.17 137.77 128.53 136.05L143.72 62.95C144.11 61.06 142.26 59.49 140.46 60.18L55.78 92.85C53.69 93.66 53.71 96.61 55.81 97.4ZM83.14 101L123.47 76.17C124.19 75.72 124.94 76.7 124.31 77.28L91.03 108.21C89.8625 109.298 89.1095 110.758 88.9 112.34L87.76 120.74C87.61 121.86 86.04 121.98 85.73 120.89L81.37 105.57C81.1286 104.719 81.1707 103.813 81.4901 102.989C81.8094 102.164 82.3886 101.466 83.14 101Z" fill="#FEFEFE"></path> </svg> 