<svg xmlns="http://www.w3.org/2000/svg" width="198" height="198" fill="none"><path d="M99 196.62c53.914 0 97.62-43.706 97.62-97.62S152.914 1.38 99 1.38 1.38 45.086 1.38 99 45.086 196.62 99 196.62z" fill="#8040BD"/><path fill-rule="evenodd" clip-rule="evenodd" d="M125.56 92.99c.09-10.53-8.88-20.19-20-21.53-.22-.03-.46-.07-.72-.11-.55-.09-1.12-.19-1.69-.19-2.28 0-2.89 1.61-3.05 2.56-.16.93-.01 1.71.44 2.32.75 1.03 2.08 1.21 3.15 1.36.31.04.61.08.86.13 9.99 2.24 13.35 5.75 15 15.65.04.25.06.55.07.86.08 1.19.22 3.65 2.87 3.65.22 0 .46-.02.71-.06 2.46-.37 2.39-2.63 2.35-3.71-.01-.3-.02-.59 0-.78.01-.05.01-.1.01-.15z" fill="#FEFEFE"/><path fill-rule="evenodd" clip-rule="evenodd" d="M102.5 67.59c.3.02.58.04.81.08 16.41 2.52 23.95 10.3 26.04 26.83.04.28.04.63.05.99.02 1.29.06 3.98 2.95 4.04h.09c.91 0 1.63-.27 2.14-.81.9-.94.84-2.34.79-3.46-.02-.28-.03-.54-.02-.76.2-16.92-14.43-32.25-31.33-32.82-.07-.01-.14 0-.21.01-.03 0-.09.01-.2.01-.17 0-.37-.02-.59-.03-.27-.02-.57-.04-.87-.04-2.7 0-3.21 1.91-3.27 3.05-.15 2.64 2.4 2.82 3.62 2.91zm26.06 48.28c-.35-.26-.71-.54-1.04-.81-1.8-1.44-3.7-2.77-5.55-4.06-.38-.26-.76-.53-1.14-.8-2.36-1.65-4.49-2.46-6.49-2.46-2.7 0-5.05 1.49-7 4.44-.86 1.3-1.9 1.93-3.19 1.93-.76 0-1.63-.21-2.57-.64-7.62-3.46-13.07-8.75-16.18-15.75-1.5-3.38-1.01-5.59 1.63-7.39 1.51-1.02 4.31-2.92 4.11-6.56-.23-4.13-9.34-16.56-13.18-17.97-1.63-.59-3.34-.6-5.09-.01-4.41 1.48-7.58 4.09-9.16 7.53-1.53 3.33-1.46 7.24.2 11.31 4.79 11.76 11.52 22.02 20.01 30.48 8.32 8.28 18.53 15.06 30.37 20.16 1.07.46 2.19.71 3.01.89.27.07.51.12.69.17.09.02.19.04.3.04h.09c5.57 0 12.25-5.09 14.31-10.89 1.8-5.08-1.49-7.59-4.13-9.61zm-23.6-34.84c-.95.02-2.93.07-3.63 2.09-.33.94-.29 1.76.11 2.44.6.99 1.73 1.29 2.76 1.45 3.73.6 5.65 2.67 6.04 6.5.17 1.79 1.38 3.04 2.92 3.04.12 0 .24-.01.35-.02 1.86-.22 2.76-1.59 2.68-4.06.03-2.58-1.32-5.51-3.62-7.85s-5.08-3.65-7.61-3.59z" fill="#FEFEFE"/></svg>