<svg xmlns="http://www.w3.org/2000/svg" width="198" height="198" fill="none"><path d="M99 196.62c53.914 0 97.62-43.706 97.62-97.62S152.914 1.38 99 1.38 1.38 45.086 1.38 99 45.086 196.62 99 196.62z" fill="#51B050"/><path fill-rule="evenodd" clip-rule="evenodd" d="M143.27 97.86c0 23.82-19.46 43.12-43.47 43.12-7.62 0-14.77-1.94-21-5.36l-24.07 7.65 7.85-23.14a42.657 42.657 0 01-6.24-22.27c0-23.82 19.46-43.13 43.46-43.13 24.01 0 43.47 19.31 43.47 43.13zM99.8 61.6c-20.15 0-36.54 16.27-36.54 36.26 0 7.93 2.59 15.28 6.96 21.26l-4.56 13.46 14.04-4.46c5.77 3.79 12.68 6 20.11 6 20.14 0 36.54-16.27 36.54-36.26S119.95 61.6 99.8 61.6zm21.95 46.19c-.27-.44-.98-.7-2.04-1.23-1.07-.53-6.31-3.09-7.28-3.44-.98-.35-1.69-.53-2.4.53s-2.75 3.44-3.37 4.14c-.62.71-1.24.8-2.31.27-1.06-.53-4.5-1.65-8.57-5.25-3.16-2.8-5.3-6.26-5.92-7.32-.62-1.05-.07-1.63.46-2.15.48-.48 1.07-1.24 1.6-1.85.54-.62.71-1.06 1.07-1.77.35-.7.18-1.32-.09-1.85s-2.4-5.73-3.29-7.85c-.88-2.11-1.77-1.76-2.39-1.76-.63 0-1.33-.09-2.05-.09-.71 0-1.86.27-2.84 1.32-.97 1.06-3.73 3.62-3.73 8.82s3.82 10.23 4.35 10.93c.54.71 7.37 11.73 18.2 15.96 10.84 4.23 10.84 2.82 12.79 2.64 1.95-.17 6.3-2.55 7.19-5.02.89-2.47.89-4.59.62-5.03z" fill="#FEFEFE"/></svg>