<?xml version="1.0" encoding="UTF-8"?> <svg xmlns="http://www.w3.org/2000/svg" width="198" height="198" viewBox="0 0 198 198" fill="none"> <path d="M99 196.62C152.914 196.62 196.62 152.914 196.62 99C196.62 45.086 152.914 1.38 99 1.38C45.086 1.38 1.38 45.086 1.38 99C1.38 152.914 45.086 196.62 99 196.62Z" fill="#51B050"></path> <path fill-rule="evenodd" clip-rule="evenodd" d="M143.27 97.86C143.27 121.68 123.81 140.98 99.8 140.98C92.18 140.98 85.03 139.04 78.8 135.62L54.73 143.27L62.58 120.13C58.4889 113.423 56.3295 105.716 56.34 97.86C56.34 74.04 75.8 54.73 99.8 54.73C123.81 54.73 143.27 74.04 143.27 97.86ZM99.8 61.6C79.65 61.6 63.26 77.87 63.26 97.86C63.26 105.79 65.85 113.14 70.22 119.12L65.66 132.58L79.7 128.12C85.47 131.91 92.38 134.12 99.81 134.12C119.95 134.12 136.35 117.85 136.35 97.86C136.35 77.87 119.95 61.6 99.8 61.6ZM121.75 107.79C121.48 107.35 120.77 107.09 119.71 106.56C118.64 106.03 113.4 103.47 112.43 103.12C111.45 102.77 110.74 102.59 110.03 103.65C109.32 104.71 107.28 107.09 106.66 107.79C106.04 108.5 105.42 108.59 104.35 108.06C103.29 107.53 99.85 106.41 95.78 102.81C92.62 100.01 90.48 96.55 89.86 95.49C89.24 94.44 89.79 93.86 90.32 93.34C90.8 92.86 91.39 92.1 91.92 91.49C92.46 90.87 92.63 90.43 92.99 89.72C93.34 89.02 93.17 88.4 92.9 87.87C92.63 87.34 90.5 82.14 89.61 80.02C88.73 77.91 87.84 78.26 87.22 78.26C86.59 78.26 85.89 78.17 85.17 78.17C84.46 78.17 83.31 78.44 82.33 79.49C81.36 80.55 78.6 83.11 78.6 88.31C78.6 93.51 82.42 98.54 82.95 99.24C83.49 99.95 90.32 110.97 101.15 115.2C111.99 119.43 111.99 118.02 113.94 117.84C115.89 117.67 120.24 115.29 121.13 112.82C122.02 110.35 122.02 108.23 121.75 107.79Z" fill="#FEFEFE"></path> </svg> 