<svg xmlns="http://www.w3.org/2000/svg" width="198" height="198" fill="none"><path d="M99 196.62c53.914 0 97.62-43.706 97.62-97.62S152.914 1.38 99 1.38 1.38 45.086 1.38 99 45.086 196.62 99 196.62z" fill="#3DA3DE"/><path fill-rule="evenodd" clip-rule="evenodd" d="M55.81 97.4l20.63 7.7 7.99 25.69c.51 1.64 2.52 2.25 3.86 1.16l11.5-9.38c1.2-.98 2.92-1.03 4.18-.11l20.74 15.06c1.43 1.03 3.46.25 3.82-1.47l15.19-73.1c.39-1.89-1.46-3.46-3.26-2.77L55.78 92.85c-2.09.81-2.07 3.76.03 4.55zm27.33 3.6l40.33-24.83c.72-.45 1.47.53.84 1.11l-33.28 30.93a6.88 6.88 0 00-2.13 4.13l-1.14 8.4c-.15 1.12-1.72 1.24-2.03.15l-4.36-15.32a4.069 4.069 0 011.77-4.57z" fill="#FEFEFE"/></svg>