<svg xmlns="http://www.w3.org/2000/svg" width="50" height="50" viewBox="0 0 48 48"><path d="M24 3.125c11.511 0 20.875 9.364 20.875 20.875S35.511 44.875 24 44.875 3.125 35.511 3.125 24 12.489 3.125 24 3.125m0-3C10.814.125.125 10.814.125 24S10.814 47.875 24 47.875 47.875 37.186 47.875 24 37.186.125 24 .125z" fill="#ff6b00"/><path d="M25.5 36.033a1.5 1.5 0 11-3 0V16.87l-7.028 7.061a1.497 1.497 0 01-2.121.005 1.5 1.5 0 01-.005-2.121l9.591-9.637A1.498 1.498 0 0124 11.736h.001c.399 0 .783.16 1.063.443l9.562 9.637a1.5 1.5 0 01-2.129 2.114l-6.994-7.049-.003 19.152z" fill="#ff6b00"/></svg>