<svg width="50" height="50" fill="none" xmlns="http://www.w3.org/2000/svg"><path d="M25 43c9.941 0 18-8.059 18-18S34.941 7 25 7 7 15.059 7 25s8.059 18 18 18z" fill="#fff"/><path d="M25 0C11.194 0 0 11.194 0 25s11.194 25 25 25 25-11.194 25-25S38.806 0 25 0zm-.937 12.977c.184-.004.376.025.541.025.067 0 .13-.006.183-.02 5.948.216 11.137 5.623 11.03 11.57 0 .54.216 1.406-.65 1.406-.865 0-.648-.865-.648-1.514a19.235 19.235 0 00-.387-2.197 13.323 13.323 0 00-.603-1.9 9.444 9.444 0 00-1.336-2.327c-1.607-2.029-4.047-3.193-7.514-3.74-.54-.107-1.298 0-1.298-.648 0-.563.324-.655.682-.655zm8.185 11.791c-.973.109-.758-.757-.865-1.297-.65-3.785-1.947-5.19-5.839-6.056-.54-.108-1.405 0-1.298-.864.109-.865.973-.54 1.515-.432 3.892.432 7.028 3.675 7.028 7.352-.108.432.216 1.19-.54 1.298l-.001-.001zm-2.379-1.945c0 .432 0 .972-.649 1.08-.432 0-.649-.324-.757-.756-.108-1.622-.974-2.487-2.595-2.704-.432-.108-.973-.216-.758-.866.11-.432.54-.432.975-.432 1.838-.107 3.784 1.839 3.784 3.678zm6.055 11.895c-.649 1.838-2.92 3.676-4.866 3.676-.216-.108-.757-.108-1.297-.325-8.434-3.676-14.706-9.624-18.167-18.274-1.19-2.812.108-5.298 3.029-6.272a2.11 2.11 0 011.62 0c1.299.433 4.434 4.867 4.543 6.164.107 1.08-.65 1.621-1.298 2.054-1.298.866-1.298 2.055-.757 3.244 1.298 2.812 3.46 4.65 6.163 5.948.974.432 1.947.432 2.596-.65 1.189-1.838 2.703-1.838 4.325-.648.757.54 1.621 1.081 2.378 1.73 1.083.865 2.38 1.621 1.731 3.352v.001z" fill="#935BBE"/></svg>