<svg xmlns="http://www.w3.org/2000/svg" width="368" height="368" fill="none"><path d="M0 184a184 184 0 10368 0 184 184 0 00-368 0zm352 0a168.003 168.003 0 01-103.709 155.212 168.007 168.007 0 01-183.085-36.418 167.998 167.998 0 0125.458-258.48A168.001 168.001 0 01352 184z" fill="#fff"/><path d="M32 184a152.002 152.002 0 00181.654 149.079 151.994 151.994 0 00119.425-119.425 152.005 152.005 0 00-64.632-156.037A152.002 152.002 0 0032 184zm237.68-74.32l16-16A135.361 135.361 0 01320 176h-24v16h24a135.36 135.36 0 01-34.08 82.16l-16-16-11.36 11.36 16 16A135.36 135.36 0 01192 320v-24h-16v24a135.36 135.36 0 01-82.16-34.08l16-16-11.36-11.36-16 16A135.36 135.36 0 0148.4 192H72v-16H48.4a135.36 135.36 0 0134.08-82.16l16 16 11.36-11.36-16-16A135.36 135.36 0 01176 48.4V72h16V48.4a135.36 135.36 0 0182.16 34.08l-16 16 11.52 11.2z" fill="#fff"/><path d="M192 88h-16v96a8 8 0 002.32 5.68l48 48 11.36-11.36-45.68-45.6V88z" fill="#fff"/></svg>