<svg xmlns="http://www.w3.org/2000/svg" height="512" width="512"><path d="M256 452a7.5 7.5 0 100 15 7.5 7.5 0 000-15zm0-45a7.5 7.5 0 100 15 7.5 7.5 0 000-15zm0 90a7.5 7.5 0 100 15 7.5 7.5 0 000-15zm147.342-153.868l-33.384-11.234c18.455-13.145 30.022-34.719 30.022-58.007.048-.096 0-129.91 0-129.91 0-38.446-14.975-74.601-42.167-101.803C330.616 14.979 294.458 0 256 0c-24.702 0-49.073 6.363-70.48 18.402a7.5 7.5 0 007.352 13.074C212.039 20.698 233.868 15 256 15c34.451 0 66.842 13.418 91.206 37.782 24.359 24.369 37.774 56.757 37.774 91.198v.034a29.578 29.578 0 00-14.768-3.938h-7.207a273.68 273.68 0 01-58.505-16.918 273.764 273.764 0 01-41.233-21.396c-4.582-2.898-10.56-2.629-14.875.669a185.927 185.927 0 01-32.762 20.04c-20.721 9.882-43.018 15.803-66.275 17.605h-7.566a29.578 29.578 0 00-14.768 3.938v-.034c0-34.898 13.716-67.585 38.622-92.039a7.5 7.5 0 00.097-10.606 7.5 7.5 0 00-10.606-.097c-27.802 27.297-43.113 63.786-43.113 102.742v129.91c0 23.288 11.567 44.863 30.022 58.007l-33.385 11.235a67.454 67.454 0 00-45.977 63.978v97.39a7.5 7.5 0 0015 0v-97.39a52.465 52.465 0 0135.762-49.761l13.034-4.386c-1.929 7.927-2.782 16.098-2.482 24.187a87.934 87.934 0 003.823 22.55c-14.569 4.374-25.217 17.902-25.217 33.877V464.1c0 7.551 6.143 13.693 13.693 13.693h8.405a7.5 7.5 0 000-15H117.6v-29.217c0-11.227 9.13-20.361 20.355-20.368l.017.001.018-.001c11.222.012 20.348 9.144 20.348 20.368v29.217h-7.098a7.5 7.5 0 000 15h8.405c7.55 0 13.693-6.143 13.693-13.693v-30.523c0-17.708-13.081-32.416-30.087-34.973a73.072 73.072 0 01-4.268-22.009c-.369-9.984 1.374-20.127 5.044-29.538l51.161-17.217 53.681 53.68c4.385 4.427 11.863 4.448 16.264 0l14.815-14.815a7.5 7.5 0 000-10.606 7.5 7.5 0 00-10.606 0L257 370.438l-47.541-47.541c7.049-6.128 10.261-15.469 9.541-24.894a112.136 112.136 0 0036.599 6.25c12.902.045 25.536-2.06 37.401-6.127-1.225 9.565 3.206 19.974 10.648 25.664l-9.609 9.609a7.5 7.5 0 000 10.606 7.5 7.5 0 0010.606 0l13.663-13.663 45.673 15.37c3.454 8.784 5.237 18.285 5.148 27.687-.081 8.524-1.709 17.132-4.711 25.157-19.497 2.552-34.604 19.261-34.604 39.443 0 21.942 17.851 39.793 39.793 39.793S409.4 459.942 409.4 438c0-18.369-12.514-33.864-29.462-38.425 2.67-8.416 4.108-17.262 4.191-26.033.07-7.343-.808-14.737-2.563-21.913l16.992 5.718a52.466 52.466 0 0135.762 49.762v97.39a7.5 7.5 0 0015 0v-97.39c0-29.01-18.477-54.72-45.978-63.977zm-33.515-188.056h.385c8.125 0 14.736 6.596 14.768 14.713v.115c-.036 8.226-6.89 14.949-15.153 14.713zM127.02 169.79c.024-8.231 6.899-14.945 15.153-14.713v29.542c-8.263.228-15.118-6.468-15.153-14.713zM204 302.07a12.473 12.473 0 01-8.512 11.842l-34.409 11.58c-20.473-8.764-34.058-29.177-34.058-51.601v-78.209c4.706 2.72 9.907 4.03 15.62 3.938 3.561 40.029 27.564 74.268 61.359 91.899zm51.65-12.817c-54.3-.188-98.477-45.039-98.477-99.98v-34.862c22.703-2.493 44.509-8.671 64.914-18.401a200.832 200.832 0 0034.328-20.838 288.845 288.845 0 0042.335 21.84 288.616 288.616 0 0056.076 16.829v36.586c0 26.462-10.323 51.322-29.067 70.002-19.063 18.998-42.875 28.919-70.109 28.824zm95.272 36.238l-34.417-11.582A12.47 12.47 0 01308 302.07v-10.333c10.326-5.314 19.884-12.248 28.348-20.683 19.404-19.337 30.967-44.426 33.11-71.436 5.515.079 11.005-1.313 15.523-3.938v78.209c-.001 22.425-13.586 42.839-34.059 51.602zM394.4 438c0 13.671-11.122 24.793-24.792 24.793-13.671 0-24.793-11.122-24.793-24.793 0-13.661 11.107-24.776 24.764-24.792l.024.001.021-.001c13.663.008 24.776 11.126 24.776 24.792zm-89.903-276.806a7.5 7.5 0 00-7.5 7.5v17.157a7.5 7.5 0 0015 0v-17.157a7.5 7.5 0 00-7.5-7.5zm-37.848 71.258c-1.688 1.199-5.23 3.236-9.989 3.406-5.368.187-9.401-2.055-11.316-3.412a7.5 7.5 0 10-8.672 12.24c3.319 2.352 10.14 6.184 19.334 6.184 8.055 0 15.535-3.494 19.329-6.189a7.5 7.5 0 00-8.686-12.229zm-59.146-71.258a7.5 7.5 0 00-7.5 7.5v17.157a7.5 7.5 0 0015 0v-17.157a7.5 7.5 0 00-7.5-7.5z" data-original="#000000" class="active-path" data-old_color="#000000" fill="#FFF"/></svg>