<svg viewBox="0 0 198 198" xmlns="http://www.w3.org/2000/svg" xmlns:xlink="http://www.w3.org/1999/xlink"><style>:root&gt;svg{display:none}:root&gt;svg:target{display:block}</style><svg fill="none" viewBox="0 0 198 198" id="mess-insta" xmlns="http://www.w3.org/2000/svg"><path d="M99 196.62c53.914 0 97.62-43.706 97.62-97.62S152.914 1.38 99 1.38 1.38 45.086 1.38 99 45.086 196.62 99 196.62z" fill="url(#apaint0_linear)"/><path fill-rule="evenodd" clip-rule="evenodd" d="M116.21 60.59H81.79c-11.69 0-21.2 9.51-21.2 21.2v34.42c0 11.69 9.51 21.2 21.2 21.2h34.42c11.69 0 21.2-9.51 21.2-21.2V81.79c0-11.69-9.51-21.2-21.2-21.2zm14.38 55.62c0 7.93-6.45 14.38-14.38 14.38H81.79c-7.93 0-14.38-6.45-14.38-14.38V81.79c0-7.93 6.45-14.38 14.38-14.38h34.42c7.93 0 14.38 6.45 14.38 14.38v34.42z" fill="#FEFEFE"/><path fill-rule="evenodd" clip-rule="evenodd" d="M99 79.21c-10.91 0-19.79 8.88-19.79 19.79 0 10.91 8.88 19.79 19.79 19.79 10.91 0 19.79-8.88 19.79-19.79 0-10.91-8.88-19.79-19.79-19.79zm0 32.77c-7.16 0-12.98-5.82-12.98-12.98S91.84 86.02 99 86.02s12.98 5.82 12.98 12.98-5.82 12.98-12.98 12.98zm20.62-38.55c-1.31 0-2.6.53-3.53 1.46-.93.93-1.46 2.22-1.46 3.54 0 1.31.53 2.6 1.46 3.53a5.03 5.03 0 003.53 1.46c1.32 0 2.61-.53 3.54-1.46a5.032 5.032 0 001.46-3.53c0-1.32-.53-2.61-1.46-3.54a5.036 5.036 0 00-3.54-1.46z" fill="#FEFEFE"/><defs><linearGradient id="apaint0_linear" x1="1.38" y1="99" x2="196.62" y2="99" gradientUnits="userSpaceOnUse"><stop stop-color="#8161D0"/><stop offset="1" stop-color="#C65492"/></linearGradient></defs></svg><svg fill="none" viewBox="0 0 198 198" id="mess-tg" xmlns="http://www.w3.org/2000/svg"><path d="M99 196.62c53.914 0 97.62-43.706 97.62-97.62S152.914 1.38 99 1.38 1.38 45.086 1.38 99 45.086 196.62 99 196.62z" fill="#3DA3DE"/><path fill-rule="evenodd" clip-rule="evenodd" d="M55.81 97.4l20.63 7.7 7.99 25.69c.51 1.64 2.52 2.25 3.86 1.16l11.5-9.38c1.2-.98 2.92-1.03 4.18-.11l20.74 15.06c1.43 1.03 3.46.25 3.82-1.47l15.19-73.1c.39-1.89-1.46-3.46-3.26-2.77L55.78 92.85c-2.09.81-2.07 3.76.03 4.55zm27.33 3.6l40.33-24.83c.72-.45 1.47.53.84 1.11l-33.28 30.93a6.88 6.88 0 00-2.13 4.13l-1.14 8.4c-.15 1.12-1.72 1.24-2.03.15l-4.36-15.32a4.069 4.069 0 011.77-4.57z" fill="#FEFEFE"/></svg><svg fill="none" viewBox="0 0 198 198" id="mess-viber" xmlns="http://www.w3.org/2000/svg"><path d="M99 196.62c53.914 0 97.62-43.706 97.62-97.62S152.914 1.38 99 1.38 1.38 45.086 1.38 99 45.086 196.62 99 196.62z" fill="#8040BD"/><path fill-rule="evenodd" clip-rule="evenodd" d="M125.56 92.99c.09-10.53-8.88-20.19-20-21.53-.22-.03-.46-.07-.72-.11-.55-.09-1.12-.19-1.69-.19-2.28 0-2.89 1.61-3.05 2.56-.16.93-.01 1.71.44 2.32.75 1.03 2.08 1.21 3.15 1.36.31.04.61.08.86.13 9.99 2.24 13.35 5.75 15 15.65.04.25.06.55.07.86.08 1.19.22 3.65 2.87 3.65.22 0 .46-.02.71-.06 2.46-.37 2.39-2.63 2.35-3.71-.01-.3-.02-.59 0-.78.01-.05.01-.1.01-.15z" fill="#FEFEFE"/><path fill-rule="evenodd" clip-rule="evenodd" d="M102.5 67.59c.3.02.58.04.81.08 16.41 2.52 23.95 10.3 26.04 26.83.04.28.04.63.05.99.02 1.29.06 3.98 2.95 4.04h.09c.91 0 1.63-.27 2.14-.81.9-.94.84-2.34.79-3.46-.02-.28-.03-.54-.02-.76.2-16.92-14.43-32.25-31.33-32.82-.07-.01-.14 0-.21.01-.03 0-.09.01-.2.01-.17 0-.37-.02-.59-.03-.27-.02-.57-.04-.87-.04-2.7 0-3.21 1.91-3.27 3.05-.15 2.64 2.4 2.82 3.62 2.91zm26.06 48.28c-.35-.26-.71-.54-1.04-.81-1.8-1.44-3.7-2.77-5.55-4.06-.38-.26-.76-.53-1.14-.8-2.36-1.65-4.49-2.46-6.49-2.46-2.7 0-5.05 1.49-7 4.44-.86 1.3-1.9 1.93-3.19 1.93-.76 0-1.63-.21-2.57-.64-7.62-3.46-13.07-8.75-16.18-15.75-1.5-3.38-1.01-5.59 1.63-7.39 1.51-1.02 4.31-2.92 4.11-6.56-.23-4.13-9.34-16.56-13.18-17.97-1.63-.59-3.34-.6-5.09-.01-4.41 1.48-7.58 4.09-9.16 7.53-1.53 3.33-1.46 7.24.2 11.31 4.79 11.76 11.52 22.02 20.01 30.48 8.32 8.28 18.53 15.06 30.37 20.16 1.07.46 2.19.71 3.01.89.27.07.51.12.69.17.09.02.19.04.3.04h.09c5.57 0 12.25-5.09 14.31-10.89 1.8-5.08-1.49-7.59-4.13-9.61zm-23.6-34.84c-.95.02-2.93.07-3.63 2.09-.33.94-.29 1.76.11 2.44.6.99 1.73 1.29 2.76 1.45 3.73.6 5.65 2.67 6.04 6.5.17 1.79 1.38 3.04 2.92 3.04.12 0 .24-.01.35-.02 1.86-.22 2.76-1.59 2.68-4.06.03-2.58-1.32-5.51-3.62-7.85s-5.08-3.65-7.61-3.59z" fill="#FEFEFE"/></svg><svg fill="none" viewBox="0 0 198 198" id="mess-wa" xmlns="http://www.w3.org/2000/svg"><path d="M99 196.62c53.914 0 97.62-43.706 97.62-97.62S152.914 1.38 99 1.38 1.38 45.086 1.38 99 45.086 196.62 99 196.62z" fill="#51B050"/><path fill-rule="evenodd" clip-rule="evenodd" d="M143.27 97.86c0 23.82-19.46 43.12-43.47 43.12-7.62 0-14.77-1.94-21-5.36l-24.07 7.65 7.85-23.14a42.657 42.657 0 01-6.24-22.27c0-23.82 19.46-43.13 43.46-43.13 24.01 0 43.47 19.31 43.47 43.13zM99.8 61.6c-20.15 0-36.54 16.27-36.54 36.26 0 7.93 2.59 15.28 6.96 21.26l-4.56 13.46 14.04-4.46c5.77 3.79 12.68 6 20.11 6 20.14 0 36.54-16.27 36.54-36.26S119.95 61.6 99.8 61.6zm21.95 46.19c-.27-.44-.98-.7-2.04-1.23-1.07-.53-6.31-3.09-7.28-3.44-.98-.35-1.69-.53-2.4.53s-2.75 3.44-3.37 4.14c-.62.71-1.24.8-2.31.27-1.06-.53-4.5-1.65-8.57-5.25-3.16-2.8-5.3-6.26-5.92-7.32-.62-1.05-.07-1.63.46-2.15.48-.48 1.07-1.24 1.6-1.85.54-.62.71-1.06 1.07-1.77.35-.7.18-1.32-.09-1.85s-2.4-5.73-3.29-7.85c-.88-2.11-1.77-1.76-2.39-1.76-.63 0-1.33-.09-2.05-.09-.71 0-1.86.27-2.84 1.32-.97 1.06-3.73 3.62-3.73 8.82s3.82 10.23 4.35 10.93c.54.71 7.37 11.73 18.2 15.96 10.84 4.23 10.84 2.82 12.79 2.64 1.95-.17 6.3-2.55 7.19-5.02.89-2.47.89-4.59.62-5.03z" fill="#FEFEFE"/></svg><svg viewBox="0 0 368 368" id="clock" xmlns="http://www.w3.org/2000/svg"><path d="M0 184a184 184 0 10368 0 184 184 0 00-368 0zm352 0a168.003 168.003 0 01-103.709 155.212 168.007 168.007 0 01-183.085-36.418 167.998 167.998 0 0125.458-258.48A168.001 168.001 0 01352 184z"/><path d="M32 184a152.002 152.002 0 00181.654 149.079 151.994 151.994 0 00119.425-119.425 152.005 152.005 0 00-64.632-156.037A152.002 152.002 0 0032 184zm237.68-74.32l16-16A135.361 135.361 0 01320 176h-24v16h24a135.36 135.36 0 01-34.08 82.16l-16-16-11.36 11.36 16 16A135.36 135.36 0 01192 320v-24h-16v24a135.36 135.36 0 01-82.16-34.08l16-16-11.36-11.36-16 16A135.36 135.36 0 0148.4 192H72v-16H48.4a135.36 135.36 0 0134.08-82.16l16 16 11.36-11.36-16-16A135.36 135.36 0 01176 48.4V72h16V48.4a135.36 135.36 0 0182.16 34.08l-16 16 11.52 11.2z"/><path d="M192 88h-16v96a8 8 0 002.32 5.68l48 48 11.36-11.36-45.68-45.6V88z"/></svg><svg viewBox="0 0 512 512" id="doctor" xmlns="http://www.w3.org/2000/svg"><path d="M256 452a7.5 7.5 0 100 15 7.5 7.5 0 000-15zm0-45a7.5 7.5 0 100 15 7.5 7.5 0 000-15zm0 90a7.5 7.5 0 100 15 7.5 7.5 0 000-15zm147.342-153.868l-33.384-11.234c18.455-13.145 30.022-34.719 30.022-58.007.048-.096 0-129.91 0-129.91 0-38.446-14.975-74.601-42.167-101.803C330.616 14.979 294.458 0 256 0c-24.702 0-49.073 6.363-70.48 18.402a7.5 7.5 0 007.352 13.074C212.039 20.698 233.868 15 256 15c34.451 0 66.842 13.418 91.206 37.782 24.359 24.369 37.774 56.757 37.774 91.198v.034a29.578 29.578 0 00-14.768-3.938h-7.207a273.68 273.68 0 01-58.505-16.918 273.764 273.764 0 01-41.233-21.396c-4.582-2.898-10.56-2.629-14.875.669a185.927 185.927 0 01-32.762 20.04c-20.721 9.882-43.018 15.803-66.275 17.605h-7.566a29.578 29.578 0 00-14.768 3.938v-.034c0-34.898 13.716-67.585 38.622-92.039a7.5 7.5 0 00.097-10.606 7.5 7.5 0 00-10.606-.097c-27.802 27.297-43.113 63.786-43.113 102.742v129.91c0 23.288 11.567 44.863 30.022 58.007l-33.385 11.235a67.454 67.454 0 00-45.977 63.978v97.39a7.5 7.5 0 0015 0v-97.39a52.465 52.465 0 0135.762-49.761l13.034-4.386c-1.929 7.927-2.782 16.098-2.482 24.187a87.934 87.934 0 003.823 22.55c-14.569 4.374-25.217 17.902-25.217 33.877V464.1c0 7.551 6.143 13.693 13.693 13.693h8.405a7.5 7.5 0 000-15H117.6v-29.217c0-11.227 9.13-20.361 20.355-20.368l.017.001.018-.001c11.222.012 20.348 9.144 20.348 20.368v29.217h-7.098a7.5 7.5 0 000 15h8.405c7.55 0 13.693-6.143 13.693-13.693v-30.523c0-17.708-13.081-32.416-30.087-34.973a73.072 73.072 0 01-4.268-22.009c-.369-9.984 1.374-20.127 5.044-29.538l51.161-17.217 53.681 53.68c4.385 4.427 11.863 4.448 16.264 0l14.815-14.815a7.5 7.5 0 000-10.606 7.5 7.5 0 00-10.606 0L257 370.438l-47.541-47.541c7.049-6.128 10.261-15.469 9.541-24.894a112.136 112.136 0 0036.599 6.25c12.902.045 25.536-2.06 37.401-6.127-1.225 9.565 3.206 19.974 10.648 25.664l-9.609 9.609a7.5 7.5 0 000 10.606 7.5 7.5 0 0010.606 0l13.663-13.663 45.673 15.37c3.454 8.784 5.237 18.285 5.148 27.687-.081 8.524-1.709 17.132-4.711 25.157-19.497 2.552-34.604 19.261-34.604 39.443 0 21.942 17.851 39.793 39.793 39.793S409.4 459.942 409.4 438c0-18.369-12.514-33.864-29.462-38.425 2.67-8.416 4.108-17.262 4.191-26.033.07-7.343-.808-14.737-2.563-21.913l16.992 5.718a52.466 52.466 0 0135.762 49.762v97.39a7.5 7.5 0 0015 0v-97.39c0-29.01-18.477-54.72-45.978-63.977zm-33.515-188.056h.385c8.125 0 14.736 6.596 14.768 14.713v.115c-.036 8.226-6.89 14.949-15.153 14.713zM127.02 169.79c.024-8.231 6.899-14.945 15.153-14.713v29.542c-8.263.228-15.118-6.468-15.153-14.713zM204 302.07a12.473 12.473 0 01-8.512 11.842l-34.409 11.58c-20.473-8.764-34.058-29.177-34.058-51.601v-78.209c4.706 2.72 9.907 4.03 15.62 3.938 3.561 40.029 27.564 74.268 61.359 91.899zm51.65-12.817c-54.3-.188-98.477-45.039-98.477-99.98v-34.862c22.703-2.493 44.509-8.671 64.914-18.401a200.832 200.832 0 0034.328-20.838 288.845 288.845 0 0042.335 21.84 288.616 288.616 0 0056.076 16.829v36.586c0 26.462-10.323 51.322-29.067 70.002-19.063 18.998-42.875 28.919-70.109 28.824zm95.272 36.238l-34.417-11.582A12.47 12.47 0 01308 302.07v-10.333c10.326-5.314 19.884-12.248 28.348-20.683 19.404-19.337 30.967-44.426 33.11-71.436 5.515.079 11.005-1.313 15.523-3.938v78.209c-.001 22.425-13.586 42.839-34.059 51.602zM394.4 438c0 13.671-11.122 24.793-24.792 24.793-13.671 0-24.793-11.122-24.793-24.793 0-13.661 11.107-24.776 24.764-24.792l.024.001.021-.001c13.663.008 24.776 11.126 24.776 24.792zm-89.903-276.806a7.5 7.5 0 00-7.5 7.5v17.157a7.5 7.5 0 0015 0v-17.157a7.5 7.5 0 00-7.5-7.5zm-37.848 71.258c-1.688 1.199-5.23 3.236-9.989 3.406-5.368.187-9.401-2.055-11.316-3.412a7.5 7.5 0 10-8.672 12.24c3.319 2.352 10.14 6.184 19.334 6.184 8.055 0 15.535-3.494 19.329-6.189a7.5 7.5 0 00-8.686-12.229zm-59.146-71.258a7.5 7.5 0 00-7.5 7.5v17.157a7.5 7.5 0 0015 0v-17.157a7.5 7.5 0 00-7.5-7.5z" data-original="#000000" class="bactive-path" data-old_color="#000000"/></svg><svg viewBox="0 0 480.063 480.063" id="person" xmlns="http://www.w3.org/2000/svg"><path d="M402.032 424.806v47.257a8 8 0 01-16 0v-47.257c0-36.795-29.775-66.572-66.573-66.571-17.411 0-33.208-8.87-42.259-23.728a8 8 0 012.671-10.994 8 8 0 0110.994 2.671c6.122 10.051 16.811 16.051 28.594 16.051 45.637-.002 82.573 36.93 82.573 82.571zm-139.606-80.193a8 8 0 01-6.113 9.52c-21.054 4.587-42.467-.005-59.516-11.642-16.878 18.087-39.176 15.744-36.191 15.744-36.795-.001-66.573 29.773-66.573 66.571v47.257a8 8 0 01-16 0v-47.257c0-45.636 36.929-82.571 82.571-82.571 18.462 0 33.429-14.875 33.429-33.342v-2.107c-34.919-16.697-59.429-51.784-60.923-92.643-14.37-3.455-25.077-16.317-25.077-31.62V141.05c-.437-20.3 2.577-71.143 39.648-106.877C193.456-9.953 266.864-7.15 320.842 18.835c5.261 2.535 6.06 9.643 1.691 13.324 27.345 6.67 50.925 23.48 66.074 47.538.782 1.239 2.214 3.184 1.84 6.287-.232 1.931-.807 3.565-2.295 5.075-9.75 9.888-15.119 22.991-15.119 36.896v54.57a8 8 0 01-16 0v-54.57c0-16.037 5.479-31.259 15.542-43.487-15.338-21.936-39.268-36.044-66.332-38.942l-14.061-1.506c-8.222-.88-9.835-12.207-2.194-15.352l6.395-2.633C213.097-3 124.032 29.261 124.032 140.963v41.56c0 6.348 3.656 11.865 9 14.636v-51.863c0-30.878 25.122-56 56-56h102c30.878 0 56 25.12 56 55.997v65.503c0 69.574-67.988 122.42-137.17 102.053a48.914 48.914 0 01-4.186 16.336c13.458 9.242 30.453 12.97 47.23 9.314a8.001 8.001 0 019.52 6.114zm-22.394-43.425c50.178 0 91-40.822 91-91v-64.895c0-22.054-17.944-39.997-40-39.997h-102c-22.056 0-40 17.944-40 40v64.892c0 50.178 40.822 91 91 91zm81 137.875h-24a8 8 0 000 16h24a8 8 0 000-16z" data-original="#000000" class="cactive-path" data-old_color="#000000"/></svg></svg>