<svg viewBox="0 0 198 198" xmlns="http://www.w3.org/2000/svg" xmlns:xlink="http://www.w3.org/1999/xlink"><style>:root&gt;svg{display:none}:root&gt;svg:target{display:block}</style><svg fill="none" viewBox="0 0 198 198" id="mess-insta" xmlns="http://www.w3.org/2000/svg"><path d="M99 196.62c53.914 0 97.62-43.706 97.62-97.62S152.914 1.38 99 1.38 1.38 45.086 1.38 99 45.086 196.62 99 196.62z" fill="url(#apaint0_linear)"/><path fill-rule="evenodd" clip-rule="evenodd" d="M116.21 60.59H81.79c-11.69 0-21.2 9.51-21.2 21.2v34.42c0 11.69 9.51 21.2 21.2 21.2h34.42c11.69 0 21.2-9.51 21.2-21.2V81.79c0-11.69-9.51-21.2-21.2-21.2zm14.38 55.62c0 7.93-6.45 14.38-14.38 14.38H81.79c-7.93 0-14.38-6.45-14.38-14.38V81.79c0-7.93 6.45-14.38 14.38-14.38h34.42c7.93 0 14.38 6.45 14.38 14.38v34.42z" fill="#FEFEFE"/><path fill-rule="evenodd" clip-rule="evenodd" d="M99 79.21c-10.91 0-19.79 8.88-19.79 19.79 0 10.91 8.88 19.79 19.79 19.79 10.91 0 19.79-8.88 19.79-19.79 0-10.91-8.88-19.79-19.79-19.79zm0 32.77c-7.16 0-12.98-5.82-12.98-12.98S91.84 86.02 99 86.02s12.98 5.82 12.98 12.98-5.82 12.98-12.98 12.98zm20.62-38.55c-1.31 0-2.6.53-3.53 1.46-.93.93-1.46 2.22-1.46 3.54 0 1.31.53 2.6 1.46 3.53a5.03 5.03 0 003.53 1.46c1.32 0 2.61-.53 3.54-1.46a5.032 5.032 0 001.46-3.53c0-1.32-.53-2.61-1.46-3.54a5.036 5.036 0 00-3.54-1.46z" fill="#FEFEFE"/><defs><linearGradient id="apaint0_linear" x1="1.38" y1="99" x2="196.62" y2="99" gradientUnits="userSpaceOnUse"><stop stop-color="#8161D0"/><stop offset="1" stop-color="#C65492"/></linearGradient></defs></svg><svg fill="none" viewBox="0 0 198 198" id="mess-tg" xmlns="http://www.w3.org/2000/svg"><path d="M99 196.62c53.914 0 97.62-43.706 97.62-97.62S152.914 1.38 99 1.38 1.38 45.086 1.38 99 45.086 196.62 99 196.62z" fill="#3DA3DE"/><path fill-rule="evenodd" clip-rule="evenodd" d="M55.81 97.4l20.63 7.7 7.99 25.69c.51 1.64 2.52 2.25 3.86 1.16l11.5-9.38c1.2-.98 2.92-1.03 4.18-.11l20.74 15.06c1.43 1.03 3.46.25 3.82-1.47l15.19-73.1c.39-1.89-1.46-3.46-3.26-2.77L55.78 92.85c-2.09.81-2.07 3.76.03 4.55zm27.33 3.6l40.33-24.83c.72-.45 1.47.53.84 1.11l-33.28 30.93a6.88 6.88 0 00-2.13 4.13l-1.14 8.4c-.15 1.12-1.72 1.24-2.03.15l-4.36-15.32a4.069 4.069 0 011.77-4.57z" fill="#FEFEFE"/></svg><svg fill="none" viewBox="0 0 198 198" id="mess-viber" xmlns="http://www.w3.org/2000/svg"><path d="M99 196.62c53.914 0 97.62-43.706 97.62-97.62S152.914 1.38 99 1.38 1.38 45.086 1.38 99 45.086 196.62 99 196.62z" fill="#8040BD"/><path fill-rule="evenodd" clip-rule="evenodd" d="M125.56 92.99c.09-10.53-8.88-20.19-20-21.53-.22-.03-.46-.07-.72-.11-.55-.09-1.12-.19-1.69-.19-2.28 0-2.89 1.61-3.05 2.56-.16.93-.01 1.71.44 2.32.75 1.03 2.08 1.21 3.15 1.36.31.04.61.08.86.13 9.99 2.24 13.35 5.75 15 15.65.04.25.06.55.07.86.08 1.19.22 3.65 2.87 3.65.22 0 .46-.02.71-.06 2.46-.37 2.39-2.63 2.35-3.71-.01-.3-.02-.59 0-.78.01-.05.01-.1.01-.15z" fill="#FEFEFE"/><path fill-rule="evenodd" clip-rule="evenodd" d="M102.5 67.59c.3.02.58.04.81.08 16.41 2.52 23.95 10.3 26.04 26.83.04.28.04.63.05.99.02 1.29.06 3.98 2.95 4.04h.09c.91 0 1.63-.27 2.14-.81.9-.94.84-2.34.79-3.46-.02-.28-.03-.54-.02-.76.2-16.92-14.43-32.25-31.33-32.82-.07-.01-.14 0-.21.01-.03 0-.09.01-.2.01-.17 0-.37-.02-.59-.03-.27-.02-.57-.04-.87-.04-2.7 0-3.21 1.91-3.27 3.05-.15 2.64 2.4 2.82 3.62 2.91zm26.06 48.28c-.35-.26-.71-.54-1.04-.81-1.8-1.44-3.7-2.77-5.55-4.06-.38-.26-.76-.53-1.14-.8-2.36-1.65-4.49-2.46-6.49-2.46-2.7 0-5.05 1.49-7 4.44-.86 1.3-1.9 1.93-3.19 1.93-.76 0-1.63-.21-2.57-.64-7.62-3.46-13.07-8.75-16.18-15.75-1.5-3.38-1.01-5.59 1.63-7.39 1.51-1.02 4.31-2.92 4.11-6.56-.23-4.13-9.34-16.56-13.18-17.97-1.63-.59-3.34-.6-5.09-.01-4.41 1.48-7.58 4.09-9.16 7.53-1.53 3.33-1.46 7.24.2 11.31 4.79 11.76 11.52 22.02 20.01 30.48 8.32 8.28 18.53 15.06 30.37 20.16 1.07.46 2.19.71 3.01.89.27.07.51.12.69.17.09.02.19.04.3.04h.09c5.57 0 12.25-5.09 14.31-10.89 1.8-5.08-1.49-7.59-4.13-9.61zm-23.6-34.84c-.95.02-2.93.07-3.63 2.09-.33.94-.29 1.76.11 2.44.6.99 1.73 1.29 2.76 1.45 3.73.6 5.65 2.67 6.04 6.5.17 1.79 1.38 3.04 2.92 3.04.12 0 .24-.01.35-.02 1.86-.22 2.76-1.59 2.68-4.06.03-2.58-1.32-5.51-3.62-7.85s-5.08-3.65-7.61-3.59z" fill="#FEFEFE"/></svg><svg fill="none" viewBox="0 0 198 198" id="mess-wa" xmlns="http://www.w3.org/2000/svg"><path d="M99 196.62c53.914 0 97.62-43.706 97.62-97.62S152.914 1.38 99 1.38 1.38 45.086 1.38 99 45.086 196.62 99 196.62z" fill="#51B050"/><path fill-rule="evenodd" clip-rule="evenodd" d="M143.27 97.86c0 23.82-19.46 43.12-43.47 43.12-7.62 0-14.77-1.94-21-5.36l-24.07 7.65 7.85-23.14a42.657 42.657 0 01-6.24-22.27c0-23.82 19.46-43.13 43.46-43.13 24.01 0 43.47 19.31 43.47 43.13zM99.8 61.6c-20.15 0-36.54 16.27-36.54 36.26 0 7.93 2.59 15.28 6.96 21.26l-4.56 13.46 14.04-4.46c5.77 3.79 12.68 6 20.11 6 20.14 0 36.54-16.27 36.54-36.26S119.95 61.6 99.8 61.6zm21.95 46.19c-.27-.44-.98-.7-2.04-1.23-1.07-.53-6.31-3.09-7.28-3.44-.98-.35-1.69-.53-2.4.53s-2.75 3.44-3.37 4.14c-.62.71-1.24.8-2.31.27-1.06-.53-4.5-1.65-8.57-5.25-3.16-2.8-5.3-6.26-5.92-7.32-.62-1.05-.07-1.63.46-2.15.48-.48 1.07-1.24 1.6-1.85.54-.62.71-1.06 1.07-1.77.35-.7.18-1.32-.09-1.85s-2.4-5.73-3.29-7.85c-.88-2.11-1.77-1.76-2.39-1.76-.63 0-1.33-.09-2.05-.09-.71 0-1.86.27-2.84 1.32-.97 1.06-3.73 3.62-3.73 8.82s3.82 10.23 4.35 10.93c.54.71 7.37 11.73 18.2 15.96 10.84 4.23 10.84 2.82 12.79 2.64 1.95-.17 6.3-2.55 7.19-5.02.89-2.47.89-4.59.62-5.03z" fill="#FEFEFE"/></svg></svg>