<svg xmlns="http://www.w3.org/2000/svg" width="16" height="16" viewBox="0 0 16 16" fill="none">
    <path fill-rule="evenodd" clip-rule="evenodd" d="M2.10256 2.25625C2.76718 1.60662 2.73166 1.59418 2.80498 1.59418C2.83013 1.59418 2.85523 1.6037 2.87437 1.62284C5.54279 4.30628 5.43566 4.14859 5.43566 4.22544C5.43566 4.25225 5.42587 4.27575 5.40695 4.29484L4.7737 4.92804C3.76533 5.93665 3.7614 7.5693 4.76726 8.58248L7.29468 11.2167C7.29867 11.2204 7.30239 11.2244 7.30633 11.2283C8.31448 12.2367 10.061 12.2401 11.0724 11.2283L11.7055 10.5951C11.7437 10.5569 11.806 10.5569 11.8443 10.5951C14.5127 13.2784 14.4055 13.1207 14.4055 13.1975C14.4055 13.2245 14.3958 13.2478 14.3769 13.2669L13.7436 13.9001C13.3097 14.3341 11.9277 14.5938 10.1252 14.2504C8.92221 14.021 6.60911 13.3417 4.63498 11.3671C2.66084 9.39251 1.9817 7.07885 1.75259 5.87559C1.40906 4.07254 1.66869 2.69001 2.10256 2.25625M0.18616 6.17389C0.449509 7.55728 1.23126 10.2181 3.50741 12.4948C5.78349 14.7714 8.44368 15.5536 9.82689 15.817C11.4108 16.1186 13.7351 16.1641 14.871 15.028L15.5042 14.3946C15.8238 14.0749 16 13.6496 16 13.1974C16 12.7451 15.8238 12.32 15.5042 12.0003L12.9718 9.46728C12.652 9.14734 12.227 8.97141 11.7749 8.97141C11.3227 8.97141 10.8978 9.14734 10.5779 9.46728L9.94487 10.1005C9.55817 10.4873 8.8281 10.489 8.43847 10.1053L5.91248 7.47272C5.90876 7.46879 5.90504 7.46485 5.90105 7.46107C5.51371 7.07364 5.51371 6.44316 5.90105 6.05567L6.53414 5.42248C7.19584 4.76062 7.19584 3.68968 6.53414 3.02803L4.00172 0.494998C3.34189 -0.164999 2.26807 -0.164999 1.60802 0.494998L0.974985 1.1284V1.12819C0.0683887 2.03522 -0.233775 3.96846 0.18616 6.17389" fill="#0E0E0E"></path>
</svg> 